<svg xmlns="http://www.w3.org/2000/svg" width="400" height="400" viewBox="0 0 400 400" fill="none">
  <defs>
    <!-- Tile background: GitHub-dark deepening to navy for subtle depth -->
    <linearGradient id="tile" x1="0" y1="0" x2="0" y2="1">
      <stop offset="0" stop-color="#161b22"/>
      <stop offset="1" stop-color="#0d1117"/>
    </linearGradient>
    <!-- Neon glow: blur the constellation and merge the crisp shapes back on top -->
    <filter id="glow" x="-30%" y="-30%" width="160%" height="160%">
      <feGaussianBlur in="SourceGraphic" stdDeviation="3.5" result="blur"/>
      <feMerge>
        <feMergeNode in="blur"/>
        <feMergeNode in="SourceGraphic"/>
      </feMerge>
    </filter>
  </defs>

  <!-- Rounded-square tile (transparent outside the corners so it sits on Cline's card) -->
  <rect x="24" y="24" width="352" height="352" rx="76" fill="url(#tile)"/>
  <rect x="25" y="25" width="350" height="350" rx="75" fill="none" stroke="#00e5ff" stroke-width="2" opacity="0.22"/>

  <!-- Constellation: a stylized V (vault) read as a knowledge graph -->
  <g filter="url(#glow)" stroke-linecap="round">
    <!-- Left arm: A -> B -> C -->
    <line x1="112" y1="128" x2="156" y2="210" stroke="#00e5ff" stroke-width="8" opacity="0.85"/>
    <line x1="156" y1="210" x2="200" y2="292" stroke="#00e5ff" stroke-width="8" opacity="0.85"/>
    <!-- Right arm: E -> D -> C -->
    <line x1="288" y1="128" x2="244" y2="210" stroke="#00e5ff" stroke-width="8" opacity="0.85"/>
    <line x1="244" y1="210" x2="200" y2="292" stroke="#00e5ff" stroke-width="8" opacity="0.85"/>
    <!-- Cross-links into the central node -->
    <line x1="112" y1="128" x2="200" y2="166" stroke="#7c3aed" stroke-width="6" opacity="0.8"/>
    <line x1="288" y1="128" x2="200" y2="166" stroke="#7c3aed" stroke-width="6" opacity="0.8"/>

    <!-- Nodes (drawn after lines so they sit on top) -->
    <circle cx="112" cy="128" r="22" fill="#00e5ff"/>
    <circle cx="288" cy="128" r="22" fill="#00e5ff"/>
    <circle cx="156" cy="210" r="13" fill="#00e5ff"/>
    <circle cx="244" cy="210" r="13" fill="#00e5ff"/>
    <circle cx="200" cy="166" r="12" fill="#7c3aed"/>
    <circle cx="200" cy="292" r="25" fill="#7c3aed"/>
  </g>
</svg>
